<svg width="406" height="406" viewBox="0 0 406 406" fill="none" xmlns="http://www.w3.org/2000/svg">
<path d="M383 0.5H23C10.5575 0.5 0.5 10.58 0.5 23V383C0.5 395.42 10.5575 405.5 23 405.5H216.837V248.9H164.233V187.587H216.837V142.587C216.837 90.275 248.787 61.7675 295.587 61.7675C311.315 61.7225 327.065 62.5325 342.725 64.175V118.625H310.437C285.057 118.625 280.108 130.73 280.108 148.437V187.475H340.79L332.915 248.787H280.085V405.5H383C395.442 405.5 405.5 395.42 405.5 383V23C405.5 10.58 395.442 0.5 383 0.5Z" fill="white"/>
</svg>
