<svg width="532" height="532" viewBox="0 0 532 532" fill="none" xmlns="http://www.w3.org/2000/svg">
<path d="M265.977 163.524C209.364 163.524 163.501 209.409 163.501 266C163.501 322.614 209.364 368.499 265.977 368.499C322.547 368.499 368.454 322.614 368.454 266C368.454 209.409 322.547 163.524 265.977 163.524ZM265.977 332.589C229.203 332.589 199.389 302.775 199.389 266.022C199.389 229.248 229.203 199.456 265.977 199.456C302.752 199.456 332.522 229.248 332.522 266.022C332.522 302.775 302.752 332.589 265.977 332.589Z" fill="white"/>
<path d="M372.533 183.651C385.731 183.651 396.429 172.953 396.429 159.756C396.429 146.558 385.731 135.86 372.533 135.86C359.336 135.86 348.638 146.558 348.638 159.756C348.638 172.953 359.336 183.651 372.533 183.651Z" fill="white"/>
<path d="M455.148 135.461C444.751 108.661 423.582 87.4697 396.783 77.1179C381.288 71.2881 364.907 68.1626 348.326 67.8079C326.98 66.8769 320.219 66.6109 266.088 66.6109C211.957 66.6109 205.019 66.6109 183.85 67.8079C167.313 68.1404 150.932 71.2659 135.438 77.1179C108.616 87.4697 87.4469 108.661 77.0729 135.461C71.243 150.977 68.1175 167.336 67.785 183.917C66.8319 205.241 66.5437 212.002 66.5437 266.155C66.5437 320.286 66.5437 327.18 67.785 348.394C68.1175 364.974 71.243 381.333 77.0729 396.872C87.469 423.649 108.638 444.841 135.46 455.215C150.888 461.244 167.269 464.658 183.894 465.19C205.241 466.121 212.001 466.409 266.132 466.409C320.263 466.409 327.202 466.409 348.371 465.19C364.929 464.857 381.31 461.71 396.827 455.902C423.627 445.506 444.796 424.337 455.192 397.537C461.022 382.02 464.147 365.661 464.48 349.081C465.433 327.756 465.721 320.996 465.721 266.842C465.721 212.689 465.721 205.818 464.48 184.604C464.192 167.802 461.088 151.155 455.148 135.461ZM428.149 346.753C427.993 359.521 425.688 372.178 421.255 384.171C414.494 401.616 400.728 415.403 383.305 422.098C371.446 426.509 358.944 428.814 346.287 428.992C325.229 429.967 319.288 430.211 265.29 430.211C211.248 430.211 205.728 430.211 184.271 428.992C171.658 428.836 159.112 426.509 147.275 422.098C129.785 415.426 115.931 401.638 109.17 384.171C104.826 372.334 102.476 359.809 102.276 347.174C101.323 326.116 101.102 320.175 101.102 266.177C101.102 212.157 101.102 206.638 102.276 185.158C102.432 172.39 104.737 159.755 109.17 147.763C115.931 130.274 129.785 116.508 147.275 109.814C159.112 105.425 171.658 103.097 184.271 102.92C205.351 101.967 211.27 101.701 265.29 101.701C319.31 101.701 324.852 101.701 346.287 102.92C358.944 103.075 371.446 105.403 383.305 109.814C400.728 116.53 414.494 130.318 421.255 147.763C425.599 159.6 427.949 172.124 428.149 184.759C429.102 205.84 429.346 211.758 429.346 265.778C429.346 319.776 429.346 325.584 428.392 346.775H428.149V346.753Z" fill="white"/>
</svg>
